<?xml version="1.0" encoding="UTF-8" standalone="no"?>
<!-- Created with Inkscape (http://www.inkscape.org/) -->

<svg
   xmlns:dc="http://purl.org/dc/elements/1.1/"
   xmlns:cc="http://creativecommons.org/ns#"
   xmlns:rdf="http://www.w3.org/1999/02/22-rdf-syntax-ns#"
   xmlns:svg="http://www.w3.org/2000/svg"
   xmlns="http://www.w3.org/2000/svg"
   xmlns:xlink="http://www.w3.org/1999/xlink"
   xmlns:sodipodi="http://sodipodi.sourceforge.net/DTD/sodipodi-0.dtd"
   xmlns:inkscape="http://www.inkscape.org/namespaces/inkscape"
   width="32"
   height="32"
   id="svg2"
   version="1.1"
   inkscape:version="0.92.1 r15371"
   sodipodi:docname="facebook.svg">
  <defs
     id="defs4">
    <linearGradient
       id="linearGradient3781">
      <stop
         style="stop-color:#005ca5;stop-opacity:1;"
         offset="0"
         id="stop3783" />
      <stop
         style="stop-color:#005ca5;stop-opacity:0;"
         offset="1"
         id="stop3785" />
    </linearGradient>
    <linearGradient
       inkscape:collect="always"
       xlink:href="#linearGradient3781"
       id="linearGradient3787"
       x1="22.435284"
       y1="1008.538"
       x2="23.544411"
       y2="1063.3387"
       gradientUnits="userSpaceOnUse" />
    <linearGradient
       inkscape:collect="always"
       xlink:href="#linearGradient3781"
       id="linearGradient3891"
       gradientUnits="userSpaceOnUse"
       x1="22.435284"
       y1="1008.538"
       x2="23.544411"
       y2="1063.3387"
       gradientTransform="translate(-6.1315613e-7,3.485e-5)" />
  </defs>
  <sodipodi:namedview
     id="base"
     pagecolor="#ffffff"
     bordercolor="#666666"
     borderopacity="1.0"
     inkscape:pageopacity="0.0"
     inkscape:pageshadow="2"
     inkscape:zoom="5.6"
     inkscape:cx="-70.330468"
     inkscape:cy="46.73495"
     inkscape:document-units="px"
     inkscape:current-layer="layer1"
     showgrid="false"
     inkscape:window-width="1920"
     inkscape:window-height="1019"
     inkscape:window-x="0"
     inkscape:window-y="27"
     inkscape:window-maximized="1" />
  <metadata
     id="metadata7">
    <rdf:RDF>
      <cc:Work
         rdf:about="">
        <dc:format>image/svg+xml</dc:format>
        <dc:type
           rdf:resource="http://purl.org/dc/dcmitype/StillImage" />
        <dc:title />
      </cc:Work>
    </rdf:RDF>
  </metadata>
  <g
     inkscape:label="Capa 1"
     inkscape:groupmode="layer"
     id="layer1"
     transform="translate(0,-1090.5197)">
    <path
       style="fill:#005ca5;fill-opacity:1;stroke:none;stroke-width:0.79996496"
       d="m 16.861656,1092.5361 c -1.89142,0.074 -2.434846,0.3848 -3.06998,1.2398 -0.739705,0.9958 -0.905424,1.7244 -1.003647,4.6935 l -0.08856,2.8338 H 11.13496 c -1.120557,0 -1.6532402,0.059 -1.8006622,0.2362 -0.140226,0.1689 -0.181486,1.0829 -0.147595,2.8338 l 0.05904,2.5977 1.7416242,0.029 1.771141,0.059 v 6.4647 c 0,5.6262 0.01945,6.484 0.265672,6.7303 0.22735,0.2279 0.733841,0.2657 2.568156,0.2657 1.25314,0 2.386824,-0.041 2.509119,-0.1181 v -0.029 c 0.168569,-0.1071 0.22988,-1.7039 0.265672,-6.6713 l 0.02952,-6.5533 2.154891,-0.089 2.15489,-0.088 v -2.8044 -2.7748 l -2.15489,-0.089 -2.154891,-0.089 -0.02952,-1.3579 c -0.04322,-1.135 0.0038,-1.4404 0.29519,-1.8007 0.303567,-0.3748 0.488991,-0.4428 1.475952,-0.4428 0.626577,0 1.495978,0.064 1.918737,0.1476 l 0.767495,0.1476 -0.05904,-2.6567 -0.05904,-2.6861 -3.453728,-0.03 c -0.98258,-0.014 -1.760569,-0.025 -2.391043,0 z"
       id="rect3051"
       inkscape:connector-curvature="0" />
  </g>
</svg>
