<?xml version="1.0" encoding="UTF-8" standalone="no"?>
<!-- Created with Inkscape (http://www.inkscape.org/) -->

<svg
   xmlns:dc="http://purl.org/dc/elements/1.1/"
   xmlns:cc="http://creativecommons.org/ns#"
   xmlns:rdf="http://www.w3.org/1999/02/22-rdf-syntax-ns#"
   xmlns:svg="http://www.w3.org/2000/svg"
   xmlns="http://www.w3.org/2000/svg"
   xmlns:xlink="http://www.w3.org/1999/xlink"
   xmlns:sodipodi="http://sodipodi.sourceforge.net/DTD/sodipodi-0.dtd"
   xmlns:inkscape="http://www.inkscape.org/namespaces/inkscape"
   width="32"
   height="32"
   id="svg2"
   version="1.1"
   inkscape:version="0.92.1 r15371"
   sodipodi:docname="googleplus.svg">
  <defs
     id="defs4">
    <linearGradient
       id="linearGradient4698">
      <stop
         style="stop-color:#c83200;stop-opacity:1;"
         offset="0"
         id="stop4700" />
      <stop
         style="stop-color:#c83200;stop-opacity:0;"
         offset="1"
         id="stop4702" />
    </linearGradient>
    <linearGradient
       inkscape:collect="always"
       id="linearGradient3781">
      <stop
         style="stop-color:#0000ff;stop-opacity:1;"
         offset="0"
         id="stop3783" />
      <stop
         style="stop-color:#0000ff;stop-opacity:0;"
         offset="1"
         id="stop3785" />
    </linearGradient>
    <linearGradient
       inkscape:collect="always"
       xlink:href="#linearGradient3781"
       id="linearGradient3787"
       x1="22.435284"
       y1="1008.538"
       x2="23.544411"
       y2="1063.3387"
       gradientUnits="userSpaceOnUse"
       gradientTransform="translate(0.50507628,-2.1465739)" />
  </defs>
  <sodipodi:namedview
     id="base"
     pagecolor="#ffffff"
     bordercolor="#666666"
     borderopacity="1.0"
     inkscape:pageopacity="0.0"
     inkscape:pageshadow="2"
     inkscape:zoom="2.8"
     inkscape:cx="-160.61686"
     inkscape:cy="-39.844106"
     inkscape:document-units="px"
     inkscape:current-layer="layer1"
     showgrid="false"
     inkscape:window-width="1920"
     inkscape:window-height="1019"
     inkscape:window-x="0"
     inkscape:window-y="27"
     inkscape:window-maximized="1" />
  <metadata
     id="metadata7">
    <rdf:RDF>
      <cc:Work
         rdf:about="">
        <dc:format>image/svg+xml</dc:format>
        <dc:type
           rdf:resource="http://purl.org/dc/dcmitype/StillImage" />
        <dc:title />
      </cc:Work>
    </rdf:RDF>
  </metadata>
  <g
     inkscape:label="Capa 1"
     inkscape:groupmode="layer"
     id="layer1"
     transform="translate(0,-1090.5197)">
    <path
       style="fill:#c83200;fill-opacity:1;stroke:none;stroke-width:0.80000263"
       d="m 15.956249,1093.6584 c -0.983666,-0.011 -2.33464,0.01 -3.850012,0.022 -5.3081735,0.061 -5.3894985,0.057 -6.6718955,0.4812 -0.712434,0.2357 -1.702679,0.7189 -2.209382,1.0719 -0.671126,0.4675 -0.991856,0.6503 -1.11563,0.5906 -0.06704,0.3458 -0.109375,0.6845 -0.109375,1.0503 v 9.4062 l 0.131251,0.1751 c 0.0031,-0.01 -0.0031,-0.044 0,-0.044 0.07725,0 0.49752,0.2034 0.918753,0.4375 0.961432,0.5343 2.26777,0.8531 3.565637,0.8531 0.552372,0 1.008353,0.043 1.006253,0.1095 -0.0021,0.065 -0.07129,0.4146 -0.153125,0.7656 -0.18709,0.8024 0.02972,1.7978 0.568751,2.6469 l 0.393752,0.6343 -0.350002,0.1313 c -0.200858,0.074 -0.933397,0.1804 -1.618755,0.2406 -0.685365,0.06 -1.80924,0.2562 -2.493758,0.4375 -0.684511,0.1813 -1.39803,0.3708 -1.596881,0.4156 l -0.371876,0.088 v 0.7218 c 0,0.5477 0.07206,1.0766 0.218751,1.575 0.09442,-0.258 0.34424,-0.4857 0.787503,-0.7875 0.46399,-0.3158 1.158084,-0.694 1.55313,-0.8313 1.013331,-0.3517 3.242396,-0.7218 4.375014,-0.7218 0.906664,0 1.036249,0.055 2.2750065,0.9188 2.579565,1.7984 3.653137,3.0517 3.653137,4.3313 0,0.3497 0.07719,0.6835 0.175001,0.7437 0.123977,0.076 0.108241,0.1668 -0.04376,0.2625 h 2.275007 c -0.147085,-0.053 -0.124698,-0.086 0.0875,-0.2406 0.412477,-0.2999 0.518051,-2.3267 0.175001,-3.5001 -0.366234,-1.2526 -1.274851,-2.2696 -3.740637,-4.2655 -2.412102,-1.9525 -2.807646,-2.5091 -2.515633,-3.4783 0.123207,-0.4088 0.506738,-0.9137 1.050004,-1.4218 1.94231,-1.8163 2.427405,-2.3666 2.865634,-3.3031 1.061981,-2.2697 0.645871,-4.9535 -1.050003,-6.8687 -0.224113,-0.2532 -0.375621,-0.5361 -0.328126,-0.6126 0.04747,-0.077 0.500278,-0.1312 0.984378,-0.1312 0.819689,0 0.934223,-0.059 1.903131,-0.8313 0.611536,-0.4873 0.981333,-0.9004 0.896879,-0.9844 -0.0406,-0.041 -0.656965,-0.077 -1.640631,-0.087 z m 8.006277,0 -1.15938,0.065 -0.06562,2.3844 -0.0875,2.4062 -2.318757,0.044 c -1.611699,0.031 -2.363515,0.1051 -2.450008,0.2405 -0.161743,0.2531 -0.161743,1.7375 0,1.9906 0.08649,0.1354 0.83831,0.2099 2.450008,0.2406 l 2.318757,0.044 0.0875,2.3844 0.06562,2.4062 1.15938,0.044 c 1.39516,0.057 1.32182,0.224 1.378128,-2.7563 l 0.04375,-2.0782 h 2.318758 2.296883 v -2.5593 h -2.296883 -2.318758 l -0.04375,-2.0781 c -0.04928,-2.6077 0.0014,-2.8055 -0.918752,-2.7781 -0.131426,0.01 -0.284985,-0.01 -0.459376,0 z m -16.7563035,1.2906 c 2.538858,-0.076 4.8901655,3.283 4.9656415,7.1751 0.02044,1.0552 -0.03625,1.3202 -0.459378,2.1437 -0.369973,0.7201 -0.671785,1.0549 -1.268755,1.4219 -1.0208325,0.6276 -2.5432535,0.7371 -3.5656355,0.2625 -2.39776,-1.1133 -4.057325,-5.3993 -3.19376,-8.2906 0.441267,-1.4774 1.703631,-2.5048 3.28126,-2.6907 0.0822,-0.01 0.158733,-0.022 0.240627,-0.022 z"
       id="rect5291"
       inkscape:connector-curvature="0" />
  </g>
</svg>
