<?xml version="1.0" encoding="UTF-8" standalone="no"?>
<!-- Created with Inkscape (http://www.inkscape.org/) -->

<svg
   xmlns:dc="http://purl.org/dc/elements/1.1/"
   xmlns:cc="http://creativecommons.org/ns#"
   xmlns:rdf="http://www.w3.org/1999/02/22-rdf-syntax-ns#"
   xmlns:svg="http://www.w3.org/2000/svg"
   xmlns="http://www.w3.org/2000/svg"
   xmlns:sodipodi="http://sodipodi.sourceforge.net/DTD/sodipodi-0.dtd"
   xmlns:inkscape="http://www.inkscape.org/namespaces/inkscape"
   id="svg4081"
   version="1.1"
   inkscape:version="0.92.1 r15371"
   width="32"
   height="32"
   sodipodi:docname="twitter.svg">
  <metadata
     id="metadata4087">
    <rdf:RDF>
      <cc:Work
         rdf:about="">
        <dc:format>image/svg+xml</dc:format>
        <dc:type
           rdf:resource="http://purl.org/dc/dcmitype/StillImage" />
        <dc:title></dc:title>
      </cc:Work>
    </rdf:RDF>
  </metadata>
  <defs
     id="defs4085" />
  <sodipodi:namedview
     pagecolor="#ffffff"
     bordercolor="#666666"
     borderopacity="1"
     objecttolerance="10"
     gridtolerance="10"
     guidetolerance="10"
     inkscape:pageopacity="0"
     inkscape:pageshadow="2"
     inkscape:window-width="1920"
     inkscape:window-height="1019"
     id="namedview4083"
     showgrid="false"
     inkscape:zoom="8.3911111"
     inkscape:cx="-13.239264"
     inkscape:cy="31.461864"
     inkscape:window-x="0"
     inkscape:window-y="27"
     inkscape:window-maximized="1"
     inkscape:current-layer="svg4081" />
  <path
     style="fill:#00acee;fill-opacity:1;stroke-width:0.80000001"
     d="m 8.2341468,27.688135 c -1.491038,-0.241071 -3.289628,-0.79815 -4.743846,-1.469301 -1.186898,-0.547791 -1.539881,-0.808443 -1.48486,-1.096499 0.05945,-0.311257 0.371411,-0.400324 1.769492,-0.505222 0.933524,-0.0701 1.936326,-0.199434 2.228448,-0.287541 1.015168,-0.306162 2.974353,-1.237609 2.974353,-1.414075 0,-0.09765 -0.475824,-0.382228 -1.057392,-0.632417 -2.104965,-0.905529 -4.140824,-4.018458 -2.628079,-4.018458 0.253105,0 0.05447,-0.308374 -0.65007,-1.009157 -1.244335,-1.237712 -1.809587,-2.298194 -1.976597,-3.708311 l -0.127518,-1.076703 0.670383,0.09839 c 0.368712,0.05413 0.670384,0.02819 0.670384,-0.05768 0,-0.08587 -0.244263,-0.626854 -0.542807,-1.202282 -0.734372,-1.4154741 -0.889188,-3.0838176 -0.417851,-4.5028761 0.20213,-0.6085612 0.508556,-1.1605995 0.680947,-1.226745 0.192851,-0.074018 0.736067,0.285852 1.411958,0.9353588 2.335841,2.2446569 4.696722,3.6042813 7.5063272,4.3228543 2.356788,0.602766 2.621472,0.573599 2.621472,-0.288866 0,-2.0459041 1.369983,-4.5005716 3.046092,-5.4578356 2.00871,-1.1472245 4.380852,-1.1038618 6.408537,0.1171523 0.670749,0.4038997 1.311156,0.7343655 1.423128,0.7343655 0.111981,0 0.826392,-0.249162 1.5876,-0.5536905 1.812729,-0.7252005 2.119152,-0.497355 1.303288,0.9690705 l -0.571975,1.028076 0.837546,-0.1123455 c 1.211411,-0.1624838 1.105617,0.3361312 -0.408903,1.9271932 l -1.246448,1.3094471 -0.117814,1.699629 c -0.323055,4.660357 -2.669568,9.17545 -6.25212,12.030172 -2.908435,2.31756 -5.818708,3.357181 -9.726874,3.474678 -1.402193,0.04219 -2.8362502,0.03024 -3.1868012,-0.02641 z"
     id="path4091"
     inkscape:connector-curvature="0" />
</svg>
